<svg xmlns="http://www.w3.org/2000/svg" viewBox="0 0 150 159.9" height="160" width="150"><defs><linearGradient id="c" gradientUnits="userSpaceOnUse" x1="591.7" y1="350.2" x2="714.2" y2="227.8"><stop offset=".215" stop-color="#58585a"/><stop offset=".414" stop-color="#5b5b5d"/><stop offset=".595" stop-color="#656466"/><stop offset=".768" stop-color="#767677"/><stop offset=".936" stop-color="#8f9192"/><stop offset="1" stop-color="#9c9e9f"/></linearGradient><linearGradient id="d" gradientUnits="userSpaceOnUse" x1="627" y1="314.1" x2="680" y2="261.1"><stop offset=".172" stop-color="#f29400"/><stop offset=".449" stop-color="#f6a72f"/><stop offset=".713" stop-color="#f8b54b"/><stop offset=".871" stop-color="#f9ba55"/></linearGradient><linearGradient id="e" gradientUnits="userSpaceOnUse" x1="637.4" y1="250.3" x2="669.6" y2="218.2"><stop offset=".215" stop-color="#ececed"/><stop offset=".391" stop-color="#e9e9ea"/><stop offset=".552" stop-color="#dfdfe0"/><stop offset=".706" stop-color="#cfcfd0"/><stop offset=".855" stop-color="#b9b9ba"/><stop offset="1" stop-color="#9c9e9f"/></linearGradient><linearGradient id="a" gradientUnits="userSpaceOnUse" x1="567" y1="278.5" x2="724.5" y2="120.9"><stop offset=".215" stop-color="#58585a"/><stop offset=".414" stop-color="#5b5b5d"/><stop offset=".595" stop-color="#656466"/><stop offset=".768" stop-color="#767677"/><stop offset=".936" stop-color="#8f9192"/><stop offset="1" stop-color="#9c9e9f"/></linearGradient><linearGradient id="b" gradientUnits="userSpaceOnUse" x1="565.7" y1="438.7" x2="723.1" y2="281.3"><stop offset=".215" stop-color="#58585a"/><stop offset=".414" stop-color="#5b5b5d"/><stop offset=".595" stop-color="#656466"/><stop offset=".768" stop-color="#767677"/><stop offset=".936" stop-color="#8f9192"/><stop offset="1" stop-color="#9c9e9f"/></linearGradient></defs><path d="M590.6 283.5l1.8 1.4v-71h23.2l-11.9-9.4c37-21.4 85.2-17.5 118.5 12.9 1.8 1.6 3.4 3.4 5 5.1l66-29.5c-6.6-9.4-14.3-18.2-23.1-26.4-62.9-57.9-158.7-59.5-223.5-7.1-5.7 4.6-11.3 9.6-16.5 15.1-11.4 12-20.6 25.3-27.7 39.3l57.2 45.1 31 24.5z" fill="url(#a)" transform="matrix(.4771 0 0 .4783 -234.4 -58.2)"/><path d="M748.6 318.9l-23.8-18.8-11.3-8.9v73.5h-20l10.9 8.6c-36.4 21-83.8 17.4-117-11.9-.4-.4-.9-.7-1.3-1.1-7.8-7.2-14-15.4-18.9-24.2h-75.8c5.8 19.7 15.4 38.6 28.7 55.4 5.4 6.9 11.5 13.4 18.1 19.6 62.8 57.9 158.5 59.6 223.3 7.3 5.8-4.7 11.4-9.8 16.6-15.3 11.4-12 20.6-25.2 27.7-39.1l-57.2-45.1z" fill="url(#b)" transform="matrix(.4771 0 0 .4783 -234.4 -58.2)"/><g><path fill="url(#c)" d="M707.3 221h-27.2v109.2h-54.3V221h-27.3v136.1H707.3z" transform="matrix(.4771 0 0 .4783 -234.4 -58.2)"/><path fill="url(#d)" d="M634 254.1h39.07v66.97H634z" transform="matrix(.4771 0 0 .4783 -234.4 -58.2)"/><path fill="url(#e)" d="M634 221.6h39.07v25.16H634z" transform="matrix(.4771 0 0 .4783 -234.4 -58.2)"/></g></svg>
